<svg width="237" height="65" viewBox="0 0 237 65" fill="none" xmlns="http://www.w3.org/2000/svg">
<g filter="url(#filter0_di_13481_463675)">
<path d="M71.808 33.9015L58.8898 31.3961L71.8048 26.21L74.3368 29.1521L71.808 33.9015Z" fill="#F3E3C1"/>
<path d="M88.8715 27.261C87.3281 23.8854 86.1961 21.0006 85.7911 20.3089C84.6112 18.3135 82.8541 18.4219 81.3457 18.6833C77.3245 19.375 75.7556 20.0826 68.6666 21.9665C67.6239 22.2533 65.6563 22.8303 64.5721 22.4542C61.7021 21.4724 60.8315 20.6851 59.4539 20.8413C57.3205 21.0867 52.9358 23.1459 48.1747 26.6235C46.6855 27.6945 46.8577 28.9759 46.5803 29.811C46.5673 29.8533 46.5639 29.8979 46.5702 29.9416C46.5765 29.9853 46.5925 30.0271 46.6168 30.064C46.6412 30.1009 46.6735 30.1319 46.7113 30.1548C46.749 30.1778 46.7914 30.1921 46.8354 30.1967C47.5274 30.2668 55.0819 30.9235 55.4263 30.9713C55.3748 30.9446 55.3315 30.9044 55.3012 30.855C55.2708 30.8055 55.2546 30.7488 55.2541 30.6908C55.253 30.6378 55.2672 30.5856 55.2949 30.5404C55.3226 30.4952 55.3627 30.4589 55.4104 30.4358C57.5661 29.2755 65.398 25.1285 70.1272 23.2638C76.5974 20.6978 78.16 20.4237 80.1244 20.2388C80.6482 20.2096 81.1735 20.216 81.6965 20.2579C81.8802 20.2693 82.0568 20.3333 82.2049 20.4425C82.3531 20.5516 82.4667 20.7011 82.532 20.8731C83.4249 23.4933 86.0398 29.4126 87.4238 31.3729C87.3523 31.5024 87.2517 31.6136 87.13 31.6976C87.0083 31.7817 86.8687 31.8364 86.7222 31.8574C86.3587 31.8574 85.6188 31.1785 85.1596 30.7737C85.1086 30.7333 85.0464 30.7095 84.9814 30.7055C84.9164 30.7015 84.8518 30.7175 84.7961 30.7513C77.0375 35.5327 71.4442 37.6173 70.6374 37.9042C70.6051 37.9177 70.5704 37.9247 70.5353 37.9247C70.5003 37.9247 70.4656 37.9177 70.4333 37.9042L66.4695 36.4284C66.6852 36.1682 66.8605 35.877 66.9893 35.5645C67.0608 35.4095 67.0988 35.2412 67.1009 35.0705C67.0722 34.433 66.4631 34.2959 66.1888 34.2608C65.1333 34.1301 36.8127 29.9545 29.711 29.2564C26.6974 28.9376 23.8306 30.4963 22.5901 32.1252V32.1666L26.6113 36.3551C26.6536 36.4011 26.7096 36.4325 26.771 36.4445C26.8323 36.4565 26.896 36.4487 26.9526 36.422L30.1159 34.9653C30.1159 34.9653 30.5496 36.3041 30.1446 36.5304C27.517 37.9711 24.9722 39.2589 22.5104 40.5499C21.5219 41.0726 21.5537 42.0608 21.2349 43.4505C21.1009 44.0307 21.0308 44.563 21.0308 44.563C21.0308 44.563 26.5476 41.7994 29.9278 40.1865C29.9855 40.1628 30.0488 40.1565 30.11 40.1684C30.1713 40.1803 30.2276 40.2098 30.2722 40.2534C30.7537 40.773 30.91 40.8909 31.2289 41.2097C31.2618 41.2427 31.2865 41.283 31.3011 41.3273C31.3156 41.3716 31.3197 41.4186 31.3129 41.4647C31.3061 41.5109 31.2886 41.5547 31.2618 41.5929C31.2351 41.6311 31.1998 41.6625 31.1587 41.6846C30.3615 42.1086 29.5388 42.5421 28.9074 42.9182C28.4067 43.2147 28.9074 44.2124 28.9074 44.2124L38.0882 39.8645C38.0882 39.8645 38.659 40.4287 37.6481 41.0567C36.0824 42.0385 21.6016 49.4176 20.3579 49.4495C17.0733 49.5324 10.8773 43.3549 8.63868 42.4146C6.75084 41.6209 4.71632 42.915 1.95791 44.5343C1.20852 44.9806 1.66453 46.058 1.66453 46.058L5.66342 44.0339C5.66342 44.0339 6.1577 44.6044 5.60283 44.9519C3.66716 46.1791 0.867311 47.4063 0.436809 47.7155C-0.200972 48.1681 0.0477622 50.2878 0.0477622 50.2878L3.8298 48.5347C3.87994 48.5096 3.93583 48.4981 3.99181 48.5015C4.0478 48.5048 4.10191 48.5229 4.14869 48.5538L12.2549 56.2677C12.7694 56.1428 13.2719 55.9732 13.7569 55.7608L6.9932 48.5729C6.96426 48.5375 6.94328 48.4963 6.93169 48.452C6.92011 48.4078 6.91817 48.3616 6.92604 48.3165C6.9339 48.2715 6.95138 48.2286 6.97728 48.1909C7.00317 48.1532 7.03687 48.1215 7.0761 48.098C7.7681 47.7474 8.59403 47.4892 9.76436 48.3849C10.7465 49.1308 14.1842 51.9103 17.5102 51.6139C18.6199 51.5182 18.6359 51.8593 18.6359 51.8593C18.6359 51.8593 17.2232 52.5382 15.549 53.4531C14.7199 53.9121 15.3928 55.1202 15.3928 55.1202C23.9614 51.6139 34.5262 47.2342 35.9931 46.5967C36.0452 46.5747 36.1021 46.567 36.1582 46.5742C36.2142 46.5815 36.2673 46.6036 36.312 46.6381L38.7898 48.6048C39.1406 49.1531 56.7656 42.3795 62.1995 39.635C62.5184 39.4852 65.2673 39.6127 66.6034 39.6C67.2157 39.6 67.1934 39.8677 67.1934 39.8677C67.1934 39.8677 23.094 57.4407 12.274 57.0391H12.2549L9.94931 58.0272C11.3014 58.9197 10.9793 60.4625 13.2817 59.2703C13.4188 59.5891 13.5783 59.9078 13.7473 60.2776C14.1937 61.2339 14.1937 61.253 17.1212 60.2585C25.4123 57.4598 62.6205 46.3385 70.9563 42.8895C75.6631 40.9483 82.1717 38.2676 86.2279 35.7558C90.23 33.295 91.0464 32.02 88.8715 27.261ZM53.261 27.4331C52.7604 27.7901 49.463 27.1749 49.463 27.1749C49.463 27.1749 53.1111 23.9332 56.5839 23.5188C57.6171 23.3945 59.7058 24.2041 59.7058 24.2041C59.7058 24.2041 55.0468 26.1485 53.261 27.4331ZM64.3265 24.2073L59.6165 26.6235C59.6165 26.6235 58.5259 25.9636 59.7536 25.409C60.0725 25.2656 60.79 24.8544 61.3736 24.5516C61.4458 24.5135 61.5056 24.4555 61.5458 24.3845C61.5861 24.3135 61.6052 24.2325 61.6008 24.151C61.5965 24.0695 61.5688 23.991 61.5212 23.9247C61.4736 23.8584 61.408 23.8072 61.3322 23.777L57.8403 22.3777C58.171 22.1148 58.559 21.9336 58.973 21.8488C59.3869 21.7641 59.815 21.7782 60.2224 21.89C60.7294 22.0462 62.8501 22.9387 64.2436 23.522C64.3174 23.5387 64.3841 23.5778 64.4348 23.6339C64.4854 23.69 64.5175 23.7604 64.5265 23.8355C64.5356 23.9105 64.5213 23.9865 64.4855 24.0531C64.4497 24.1196 64.3942 24.1735 64.3265 24.2073V24.2073ZM65.5001 35.5964C65.0409 36.2754 63.9694 37.5376 62.3941 37.2826C61.6255 37.1519 30.3487 30.8087 30.2722 30.8023C30.0522 30.7418 30.0809 30.2732 30.4795 30.321L65.2928 35.1278C65.3428 35.1382 65.3896 35.1605 65.4292 35.1928C65.4688 35.225 65.5001 35.2663 65.5205 35.3132C65.5408 35.3601 65.5495 35.4111 65.546 35.4621C65.5424 35.513 65.5267 35.5624 65.5001 35.606V35.5964Z" fill="#F3E3C1"/>
<path d="M88.1036 21.3394C88.071 21.344 88.0389 21.3515 88.0077 21.3617C87.9766 21.374 87.9483 21.3924 87.9246 21.4159L88.2443 21.333L88.1036 21.3394Z" fill="#F3E3C1"/>
<path d="M100.961 44.8434C100.699 43.7947 98.7796 36.8459 97.673 34.2958L92.6186 25.2305C92.1406 25.8919 91.6072 26.5114 91.0241 27.0824C90.9268 27.1662 90.8198 27.2379 90.7052 27.296C90.5544 27.3581 90.3932 27.3917 90.2301 27.3948L92.9534 36.3199C93.3584 37.7543 94.3055 38.9752 95.1219 40.2151C95.5333 40.8271 98.4288 45.1463 99.5417 46.8038C99.5953 46.884 99.6679 46.9497 99.753 46.9952C99.8381 47.0407 99.9331 47.0645 100.03 47.0645C100.126 47.0645 100.221 47.0407 100.306 46.9952C100.391 46.9497 100.464 46.884 100.518 46.8038C100.718 46.5227 100.86 46.2046 100.936 45.8681C101.012 45.5315 101.02 45.1833 100.961 44.8434V44.8434ZM99.9722 46.0834L99.9116 46.179L99.8447 46.0834C99.8032 46.0228 95.715 40.0079 94.2386 37.6778C93.7921 36.9766 94.3151 36.6228 94.3151 36.6228L94.3757 36.5877L94.4171 36.6419C94.6244 36.9033 99.446 43.1827 100.071 44.3366C100.207 44.6114 100.27 44.9169 100.252 45.2231C100.235 45.5292 100.138 45.8257 99.9722 46.0834Z" fill="#F3E3C1"/>
<path d="M87.5483 11.2535C86.9934 9.37606 86.0463 8.16161 85.2236 6.91846C84.8122 6.28095 81.8019 1.81839 80.7432 0.224616C80.6975 0.155573 80.6355 0.0989145 80.5626 0.0597154C80.4897 0.0205163 80.4082 0 80.3254 0C80.2426 0 80.1611 0.0205163 80.0882 0.0597154C80.0153 0.0989145 79.9533 0.155573 79.9077 0.224616C79.6923 0.528809 79.5405 0.873371 79.4616 1.23762C79.3827 1.60188 79.3782 1.97831 79.4485 2.34433C79.7163 3.38666 81.5691 10.3132 82.6788 12.8632L87.29 20.9819C87.4052 20.8474 87.5476 20.7388 87.7077 20.6632C87.817 20.6162 87.9335 20.5882 88.0521 20.5803C88.6612 20.5388 89.6147 20.5452 90.4757 20.5612L87.5483 11.2535ZM86.0591 10.616L85.9985 10.6511L85.957 10.5969C85.7529 10.3291 80.9409 4.05605 80.3031 2.89578C80.1711 2.61999 80.1118 2.31505 80.1307 2.00991C80.1497 1.70476 80.2464 1.40952 80.4115 1.15219L80.4721 1.06294L80.5391 1.15219C80.5805 1.21913 84.6847 7.24041 86.1452 9.56094C86.5884 10.275 86.0654 10.6192 86.0591 10.6256V10.616Z" fill="#F3E3C1"/>
<path d="M93.2692 21.3385C92.0128 21.058 89.6339 21.0421 88.2116 21.1313C88.1596 21.1282 88.1074 21.1282 88.0554 21.1313C88.0209 21.1366 87.9868 21.1441 87.9533 21.1536C87.9197 21.1674 87.8893 21.188 87.864 21.2142C87.7814 21.2718 87.7186 21.3536 87.6843 21.4484C87.6501 21.5431 87.646 21.6462 87.6727 21.7433C88.387 23.5475 89.0184 24.9468 89.8475 26.5916C89.9176 26.6895 90.0202 26.7594 90.1371 26.7886C90.2539 26.8178 90.3774 26.8044 90.4853 26.7509C90.5319 26.7283 90.5757 26.7005 90.6161 26.6681C91.9064 25.4331 92.9516 23.9656 93.6965 22.3426C93.9293 21.8421 93.7922 21.4469 93.2692 21.3385ZM89.1396 23.7802L88.4125 22.1067C88.3945 22.0712 88.3846 22.0322 88.3834 21.9924C88.3822 21.9526 88.3898 21.9131 88.4056 21.8765C88.4215 21.84 88.4451 21.8074 88.475 21.7811C88.5048 21.7548 88.5401 21.7353 88.5783 21.7242C88.6025 21.7114 88.6282 21.7017 88.6549 21.6955C88.6549 21.6955 91.6652 21.5871 92.6059 21.772C93.1066 21.874 93.1257 22.0525 93.1257 22.0525L89.1396 23.7802Z" fill="#F3E3C1"/>
<path d="M77.9431 21.7949C77.9431 21.7949 77.3755 24.1441 76.4795 26.8536L74.8212 24.7593L73.4787 25.3713L75.9214 28.4633C75.1592 30.5479 74.2408 32.623 73.2618 33.847L75.7109 32.7346C76.269 32.2182 76.7186 31.1727 77.0694 29.9168L78.4151 31.6189L79.7672 31.0037L77.484 28.135C77.9814 25.518 78.1122 22.6842 77.9431 21.7949Z" fill="#F3E3C1"/>
</g>
<g filter="url(#filter1_di_13481_463675)">
<path d="M154.199 23.531L150.542 37.9431C150.212 39.135 149.485 40.1813 148.48 40.9127C147.524 41.6925 146.328 42.1258 145.09 42.1411L149.821 23.5156H143.969L143.35 26.3409L138.659 44.9664H144.35C147.126 44.9664 149.765 43.9479 152.267 41.9108C154.769 39.8737 156.368 37.4804 157.063 34.7308L159.178 26.344L159.893 23.5187H154.199V23.531Z" fill="#F3E3C1"/>
<path d="M164.634 40.0501C164.647 39.9782 164.666 39.9074 164.689 39.8382C164.711 39.7831 164.728 39.7266 164.742 39.6693L168.814 23.5343H159.37L158.652 26.3596H162.426L159.06 39.6662C159.002 39.8316 158.96 40.0024 158.937 40.176C158.693 41.6357 159.068 42.7945 160.061 43.6523C161.053 44.5102 162.526 44.9381 164.479 44.936H165.327L166.052 42.1107C164.906 41.948 164.436 41.257 164.634 40.0501ZM169.972 14.7298C169.741 14.4541 169.45 14.2346 169.12 14.0882C168.791 13.9418 168.432 13.8724 168.071 13.8853C167.268 13.894 166.497 14.1945 165.903 14.7298C165.277 15.2399 164.858 15.9577 164.724 16.7505C164.645 17.1104 164.651 17.4833 164.739 17.8408C164.828 18.1984 164.997 18.5313 165.234 18.8142C165.463 19.0902 165.754 19.3099 166.082 19.4564C166.411 19.6029 166.769 19.6722 167.129 19.6588C167.941 19.6528 168.721 19.3448 169.315 18.7958C169.943 18.2756 170.364 17.5505 170.501 16.7505C170.571 16.3959 170.56 16.0302 170.468 15.6804C170.377 15.3306 170.207 15.0058 169.972 14.7298V14.7298Z" fill="#F3E3C1"/>
<path d="M185.62 40.5655C185.631 40.5073 185.649 40.4507 185.673 40.3966C185.695 40.3433 185.711 40.2876 185.72 40.2307L189.924 23.543H180.115C178.086 23.5391 176.102 24.1346 174.415 25.2535C172.652 26.3816 171.559 27.8004 171.136 29.5099L168.764 38.9501C168.702 39.1275 168.659 39.3107 168.634 39.4967C168.485 40.2103 168.536 40.9507 168.781 41.6377C169.026 42.3246 169.456 42.9319 170.024 43.3938C171.215 44.4175 172.774 44.9293 174.7 44.9293H175.592C177.302 44.9145 178.952 44.3023 180.251 43.2004C180.97 44.353 182.319 44.9293 184.298 44.9293H186.308L187.026 42.104C185.928 42.0528 185.459 41.54 185.62 40.5655ZM180.323 38.9655C180.08 39.8551 179.548 40.6401 178.809 41.1981C178.115 41.7799 177.24 42.1055 176.332 42.1194C174.691 42.1194 174 41.3363 174.257 39.7578C174.257 39.7332 174.282 39.6626 174.313 39.549C174.338 39.4652 174.359 39.3801 174.375 39.2941L177.103 28.4658C177.474 27.0634 178.255 26.3611 179.446 26.3591H183.521L180.323 38.9655Z" fill="#F3E3C1"/>
<path d="M217.58 25.0699C216.404 24.0463 214.856 23.5345 212.936 23.5345H212.044C209.996 23.5194 207.992 24.1224 206.297 25.2634C204.563 26.4161 203.487 27.8338 203.068 29.5167L200.653 38.9569C200.593 39.135 200.55 39.3179 200.523 39.5036C200.257 41.1046 200.72 42.4108 201.913 43.4221C203.106 44.4335 204.679 44.9392 206.632 44.9392H207.48C209.524 44.9455 211.521 44.3362 213.208 43.1918C214.961 42.0248 216.045 40.6132 216.459 38.9569L218.853 29.5106L218.943 28.967C219.092 28.256 219.044 27.5181 218.804 26.832C218.564 26.1458 218.141 25.5369 217.58 25.0699V25.0699ZM213.245 29.0622L213.159 29.5106L210.793 38.9508C210.611 39.8301 210.182 40.6403 209.555 41.2878C209.325 41.5336 209.049 41.732 208.742 41.8717C208.435 42.0113 208.103 42.0895 207.765 42.1016C207.498 42.1087 207.234 42.041 207.004 41.9063C206.774 41.7716 206.587 41.5753 206.465 41.34C206.152 40.7451 206.062 40.0597 206.211 39.4053C206.225 39.3271 206.246 39.2501 206.273 39.175C206.295 39.0992 206.314 39.0224 206.328 38.9446L208.697 29.5106C208.89 28.6725 209.296 27.8975 209.877 27.2596C210.106 26.9925 210.391 26.7772 210.711 26.6284C211.032 26.4795 211.381 26.4005 211.734 26.3966C211.992 26.3855 212.248 26.4443 212.474 26.5666C212.701 26.6889 212.889 26.87 213.019 27.0907C213.298 27.5574 213.379 28.2116 213.245 29.0499V29.0622Z" fill="#F3E3C1"/>
<path d="M235.093 23.5303C232.963 23.4787 230.875 24.1145 229.141 25.3421L229.569 23.5303H223.903L218.465 44.935H224.16L227.116 33.2253C227.53 31.7289 228.293 30.3504 229.346 29.2024C230.332 28.0283 231.614 27.134 233.061 26.6104L232.386 29.3928H235.483L237 23.5333H235.089L235.093 23.5303Z" fill="#F3E3C1"/>
<path d="M139.449 15.4819C138.148 14.4193 136.394 13.886 134.185 13.8819C131.93 13.84 129.713 14.4631 127.816 15.6723C126.068 16.7381 124.811 18.4418 124.317 20.4169L121.951 29.722C119.954 29.722 118.103 29.722 116.666 29.722C116.183 29.7232 115.704 29.819 115.258 30.0039C114.812 30.1888 114.407 30.4591 114.067 30.7994C113.726 31.1398 113.457 31.5434 113.274 31.9872C113.091 32.431 112.998 32.9062 113 33.3857H121.016L118.093 44.9264H123.738L126.67 33.3857H131.813L129.992 40.5656C129.931 40.743 129.889 40.9262 129.866 41.1123C129.664 42.3222 129.903 43.262 130.59 43.9376C131.277 44.6132 132.302 44.9449 133.686 44.9449H135.94L136.665 42.1196C135.851 42.0643 135.51 41.6282 135.649 40.8205L140.792 20.4169C140.81 20.3028 140.834 20.19 140.867 20.0791C140.898 19.966 140.923 19.8512 140.941 19.7352C141.24 17.9724 140.743 16.5546 139.449 15.4819ZM127.565 29.7865V29.722L130.175 19.6154C130.344 18.8084 130.768 18.0759 131.386 17.5241C131.947 17.0012 132.687 16.7093 133.457 16.7072C133.761 16.685 134.066 16.7393 134.343 16.8649C134.62 16.9905 134.861 17.1834 135.043 17.4258C135.218 17.6896 135.338 17.9854 135.397 18.2961C135.455 18.6067 135.451 18.9258 135.383 19.2346L135.318 19.6154L132.708 29.722L132.689 29.7865H127.565V29.7865Z" fill="#F3E3C1"/>
<path d="M200.486 23.5313L201.789 18.5625H196.083L194.844 23.5313H192.058L191.333 26.3567H194.12L190.714 39.7123C190.714 39.7697 190.69 39.872 190.643 40.0194C190.614 40.1205 190.591 40.223 190.574 40.3265C190.337 41.7597 190.617 42.8857 191.413 43.7046C192.21 44.5236 193.417 44.933 195.033 44.933H197.033L197.764 42.0709C196.594 41.9624 196.109 41.3031 196.309 40.0931C196.322 40.0212 196.34 39.9503 196.364 39.8812C196.389 39.7953 196.408 39.7431 196.411 39.7123L199.817 26.3567H202.241L202.966 23.5313H200.489H200.486Z" fill="#F3E3C1"/>
<path d="M192.024 51.8887H157.983C157.128 51.8887 156.435 52.5761 156.435 53.4242C156.435 54.2722 157.128 54.9597 157.983 54.9597H192.024C192.879 54.9597 193.572 54.2722 193.572 53.4242C193.572 52.5761 192.879 51.8887 192.024 51.8887Z" fill="#F3E3C1"/>
<path d="M185.831 57.9297H164.175C163.32 57.9297 162.627 58.6171 162.627 59.4652C162.627 60.3132 163.32 61.0007 164.175 61.0007H185.831C186.686 61.0007 187.379 60.3132 187.379 59.4652C187.379 58.6171 186.686 57.9297 185.831 57.9297Z" fill="#F3E3C1"/>
</g>
<defs>
<filter id="filter0_di_13481_463675" x="0" y="0" width="101" height="65" filterUnits="userSpaceOnUse" color-interpolation-filters="sRGB">
<feFlood flood-opacity="0" result="BackgroundImageFix"/>
<feColorMatrix in="SourceAlpha" type="matrix" values="0 0 0 0 0 0 0 0 0 0 0 0 0 0 0 0 0 0 127 0" result="hardAlpha"/>
<feOffset dy="4"/>
<feComposite in2="hardAlpha" operator="out"/>
<feColorMatrix type="matrix" values="0 0 0 0 0 0 0 0 0 0 0 0 0 0 0 0 0 0 0.5 0"/>
<feBlend mode="normal" in2="BackgroundImageFix" result="effect1_dropShadow_13481_463675"/>
<feBlend mode="normal" in="SourceGraphic" in2="effect1_dropShadow_13481_463675" result="shape"/>
<feColorMatrix in="SourceAlpha" type="matrix" values="0 0 0 0 0 0 0 0 0 0 0 0 0 0 0 0 0 0 127 0" result="hardAlpha"/>
<feOffset dy="1"/>
<feComposite in2="hardAlpha" operator="arithmetic" k2="-1" k3="1"/>
<feColorMatrix type="matrix" values="0 0 0 0 0.290196 0 0 0 0 0.12549 0 0 0 0 0.0431373 0 0 0 0.5 0"/>
<feBlend mode="normal" in2="shape" result="effect2_innerShadow_13481_463675"/>
</filter>
<filter id="filter1_di_13481_463675" x="113" y="13.8799" width="124" height="51.1211" filterUnits="userSpaceOnUse" color-interpolation-filters="sRGB">
<feFlood flood-opacity="0" result="BackgroundImageFix"/>
<feColorMatrix in="SourceAlpha" type="matrix" values="0 0 0 0 0 0 0 0 0 0 0 0 0 0 0 0 0 0 127 0" result="hardAlpha"/>
<feOffset dy="4"/>
<feComposite in2="hardAlpha" operator="out"/>
<feColorMatrix type="matrix" values="0 0 0 0 0 0 0 0 0 0 0 0 0 0 0 0 0 0 0.5 0"/>
<feBlend mode="normal" in2="BackgroundImageFix" result="effect1_dropShadow_13481_463675"/>
<feBlend mode="normal" in="SourceGraphic" in2="effect1_dropShadow_13481_463675" result="shape"/>
<feColorMatrix in="SourceAlpha" type="matrix" values="0 0 0 0 0 0 0 0 0 0 0 0 0 0 0 0 0 0 127 0" result="hardAlpha"/>
<feOffset dy="-1"/>
<feComposite in2="hardAlpha" operator="arithmetic" k2="-1" k3="1"/>
<feColorMatrix type="matrix" values="0 0 0 0 0.290196 0 0 0 0 0.12549 0 0 0 0 0.0431373 0 0 0 0.5 0"/>
<feBlend mode="normal" in2="shape" result="effect2_innerShadow_13481_463675"/>
</filter>
</defs>
</svg>
