<svg width="24" height="24" viewBox="0 0 24 24" fill="none" xmlns="http://www.w3.org/2000/svg">
<path d="M14.2883 8.68285L8.74937 14.2389C8.46863 14.5208 8.46863 14.9776 8.74937 15.2596C8.88365 15.396 9.06705 15.4723 9.25814 15.4714C9.44945 15.4734 9.63327 15.3969 9.76692 15.2596L15.3058 9.70355C15.4984 9.52351 15.5777 9.25237 15.5126 8.99649C15.4474 8.74061 15.2483 8.5408 14.9932 8.47546C14.7381 8.41011 14.4678 8.48964 14.2883 8.68285Z" fill="#3EFFA1"/>
<path d="M10.2565 9.79984C10.2565 10.1987 9.93415 10.522 9.53653 10.522C9.1389 10.522 8.81657 10.1987 8.81657 9.79984C8.81657 9.40098 9.1389 9.07765 9.53653 9.07765C9.93415 9.07765 10.2565 9.40098 10.2565 9.79984Z" fill="#3EFFA1"/>
<path d="M15.325 14.1426C15.325 14.5414 15.0027 14.8648 14.6051 14.8648C14.2074 14.8648 13.8851 14.5414 13.8851 14.1426C13.8851 13.7437 14.2074 13.4204 14.6051 13.4204C15.0027 13.4204 15.325 13.7437 15.325 14.1426Z" fill="#3EFFA1"/>
<path fill-rule="evenodd" clip-rule="evenodd" d="M21.8131 7.99086C22.1301 8.81431 21.9223 9.74821 21.2862 10.3582C20.8257 10.7711 20.5625 11.3612 20.5625 11.9807C20.5625 12.6002 20.8257 13.1904 21.2862 13.6033C21.9504 14.2086 22.1767 15.1606 21.8563 16.0015C21.5358 16.8424 20.7341 17.4002 19.8367 17.4068H19.5967C19.0008 17.4113 18.4325 17.6594 18.0231 18.0937C17.6136 18.5281 17.3985 19.1111 17.4272 19.7081C17.4591 20.3084 17.242 20.8952 16.8274 21.3292C16.4129 21.7633 15.8378 22.006 15.2385 21.9999C14.6286 22.0001 14.048 21.737 13.645 21.2777C13.2318 20.8186 12.6441 20.5565 12.0275 20.5565C11.4109 20.5565 10.8232 20.8186 10.41 21.2777C10.007 21.737 9.42644 22.0001 8.81646 21.9999C8.21369 22.0064 7.63539 21.761 7.22021 21.3227C6.80503 20.8843 6.5904 20.2924 6.62778 19.6889C6.65385 19.0934 6.43747 18.513 6.02833 18.0808C5.61918 17.6486 5.05245 17.4018 4.45829 17.3971H4.2183C3.35977 17.3563 2.60539 16.813 2.29227 16.0101C1.97915 15.2072 2.16578 14.2947 2.76878 13.6803C3.22602 13.2676 3.48712 12.6796 3.48712 12.0626C3.48712 11.4456 3.22602 10.8576 2.76878 10.4449C2.06678 9.84698 1.81529 8.87096 2.14053 8.00672C2.46578 7.14249 3.29753 6.57665 4.2183 6.59323H4.45829C5.06039 6.59189 5.6351 6.34071 6.04605 5.89931C6.457 5.4579 6.66756 4.86561 6.62778 4.26297C6.60678 3.66922 6.82871 3.09268 7.24205 2.66716C7.65539 2.24163 8.2242 2.00412 8.81646 2.00975C9.42879 2.00809 10.0111 2.27552 10.41 2.74157C10.8272 3.19675 11.4158 3.45528 12.0323 3.45412C12.6454 3.45259 13.23 3.19428 13.645 2.74157C14.0421 2.27193 14.6247 2.00086 15.2385 2.00012C15.8395 1.99378 16.4162 2.23783 16.8311 2.67405C17.246 3.11028 17.4618 3.6996 17.4272 4.30149C17.3984 4.89766 17.6138 5.47973 18.0236 5.91255C18.4333 6.34537 19.0017 6.5913 19.5967 6.59323H19.8367C20.7164 6.61605 21.4961 7.1674 21.8131 7.99086ZM20.2303 15.3654C20.3094 15.1977 20.2615 14.9973 20.1151 14.8839V14.8262C19.3106 14.0823 18.8529 13.0349 18.8529 11.9374C18.8529 10.8399 19.3106 9.79248 20.1151 9.04866C20.2615 8.93527 20.3094 8.7349 20.2303 8.5672C20.1751 8.39703 20.015 8.28345 19.8367 8.28796H19.5967C18.5258 8.28583 17.5024 7.8439 16.7649 7.06506C16.0338 6.28636 15.6462 5.24508 15.6897 4.17631C15.7058 4.06138 15.6707 3.94517 15.5937 3.85855C15.5008 3.76138 15.3728 3.70584 15.2385 3.70448C15.1017 3.69176 14.9678 3.74983 14.8833 3.85855C14.1461 4.6745 13.1013 5.14262 12.0035 5.14885C10.9059 5.14144 9.8616 4.67352 9.12365 3.85855C9.04927 3.76383 8.93663 3.70733 8.81646 3.70448C8.68223 3.70584 8.55421 3.76138 8.46128 3.85855C8.38428 3.94517 8.34917 4.06138 8.36529 4.17631C8.42871 5.25602 8.04558 6.31421 7.30618 7.10144C6.56679 7.88868 5.53654 8.33533 4.45829 8.3361H4.2471C4.05928 8.3216 3.8855 8.4365 3.82472 8.61535C3.74556 8.78305 3.7935 8.98342 3.93992 9.09681C4.75141 9.83775 5.21768 10.8849 5.22625 11.9856C5.22003 13.0868 4.75336 14.1348 3.93992 14.8743C3.7935 14.9877 3.74556 15.1881 3.82472 15.3558C3.87347 15.5318 4.03627 15.6513 4.2183 15.6446H4.45829C5.52863 15.6487 6.55091 16.091 7.28849 16.869C8.02608 17.647 8.41502 18.6934 8.36529 19.7659C8.34794 19.878 8.3834 19.9918 8.46128 20.074C8.565 20.1778 8.7089 20.2306 8.85486 20.2185C8.97288 20.2155 9.08427 20.1631 9.16205 20.074C9.90138 19.2456 10.9574 18.7721 12.0659 18.7721C13.1744 18.7721 14.2304 19.2456 14.9697 20.074C15.0367 20.1577 15.1327 20.2127 15.2385 20.2281C15.3728 20.2267 15.5008 20.1712 15.5937 20.074C15.6716 19.9918 15.7071 19.878 15.6897 19.7659C15.6505 18.6978 16.0375 17.6582 16.7649 16.8772C17.505 16.1021 18.5267 15.6608 19.5967 15.6543H19.8079C19.9993 15.6713 20.1761 15.5503 20.2303 15.3654Z" fill="#3EFFA1"/>
</svg>
