  <svg width="119" height="60" viewBox="0 0 119 60">
    <g clip-path="url(#clip0_1877_438634)">
      <path
        d="M119 0.951953C114.22 1.49774 109.441 2.48017 105.313 4.11754C98.2524 6.90107 92.4952 11.9769 87.0096 16.9982C74.1917 28.4052 61.3738 39.8668 48.2843 51.001C46.1661 52.8021 43.3419 56.186 46.4377 58.3692C48.6645 59.8974 52.901 59.1333 55.508 59.297C56.9745 59.3516 58.4409 59.4607 59.9074 59.5153H48.5016C33.3482 59.5153 15.262 59.4607 0 59.3516C1.03195 59.1878 2.0639 58.8604 2.98722 58.4783C5.15975 57.5505 7.16933 56.2406 9.07029 54.9307C20.8019 46.7438 25.0926 45.5977 37.4217 34.136C44.3738 27.6957 50.131 21.2554 55.9425 15.852C57.9521 13.9964 60.016 11.5949 59.6358 8.97508C59.2013 6.13697 56.1597 4.33586 53.3355 3.29885C48.7189 1.6069 43.885 0.897373 38.8882 0.51532C62.1342 0.51532 95.4824 0.679057 118.891 1.00653L119 0.951953Z"
        :fill="`url(#${`linear-${dynamicId}`})`"
        style="mix-blend-mode: screen"
      />
    </g>
    <defs>
      <linearGradient
        :id="`linear-${dynamicId}`"
        x1="105.911"
        y1="-55.7557"
        x2="40.4058"
        y2="64.3228"
        gradientUnits="userSpaceOnUse"
      >
        <stop :stop-color="gradientColor" />
        <stop offset="1" :stop-color="gradientColor" stop-opacity="0" />
      </linearGradient>
      <clipPath id="clip0_1877_438634">
        <rect width="119" height="60" :fill="gradientColor" />
      </clipPath>
    </defs>
  </svg>