<svg width="237" height="65" viewBox="0 0 237 65" fill="none" xmlns="http://www.w3.org/2000/svg"><g filter="url(#filter0_di_13481_463675)" fill="#F3E3C1"><path d="M71.808 33.901L58.89 31.396l12.915-5.186 2.532 2.942-2.529 4.75z"/><path d="M88.871 27.261c-1.543-3.376-2.675-6.26-3.08-6.952-1.18-1.995-2.937-1.887-4.445-1.626-4.022.692-5.59 1.4-12.68 3.284-1.042.286-3.01.863-4.094.487-2.87-.982-3.74-1.769-5.118-1.613-2.133.246-6.518 2.305-11.28 5.782-1.489 1.072-1.316 2.353-1.594 3.188a.3.3 0 00.255.386c.692.07 8.247.727 8.591.774a.319.319 0 01-.172-.28.277.277 0 01.156-.255c2.156-1.16 9.988-5.308 14.717-7.172 6.47-2.566 8.033-2.84 9.997-3.025a11.47 11.47 0 011.573.019.956.956 0 01.835.615c.893 2.62 3.508 8.54 4.892 10.5a.956.956 0 01-.702.484c-.363 0-1.103-.678-1.562-1.083a.318.318 0 00-.364-.023c-7.759 4.782-13.352 6.866-14.159 7.153a.265.265 0 01-.204 0l-3.964-1.476a3.36 3.36 0 00.52-.863c.072-.155.11-.324.112-.494-.029-.638-.638-.775-.912-.81-1.056-.13-29.376-4.307-36.478-5.005-3.014-.318-5.88 1.24-7.12 2.87v.04l4.02 4.19a.294.294 0 00.342.066l3.163-1.457s.434 1.34.029 1.565c-2.628 1.441-5.173 2.729-7.635 4.02-.988.523-.956 1.51-1.275 2.9-.134.58-.204 1.113-.204 1.113s5.517-2.764 8.897-4.377a.32.32 0 01.344.067c.482.52.638.638.957.957a.3.3 0 01-.07.475c-.797.424-1.62.857-2.252 1.233-.5.297 0 1.294 0 1.294l9.181-4.348s.571.565-.44 1.193c-1.566.981-16.046 8.36-17.29 8.392-3.285.083-9.48-6.094-11.72-7.034-1.887-.794-3.922.5-6.68 2.12-.75.446-.293 1.523-.293 1.523l3.998-2.024s.495.57-.06.918C3.667 46.179.867 47.406.437 47.716c-.638.452-.39 2.572-.39 2.572l3.783-1.753a.319.319 0 01.319.019l8.106 7.714a9.089 9.089 0 001.502-.507l-6.764-7.188a.318.318 0 01.083-.475c.692-.35 1.518-.609 2.688.287.982.746 4.42 3.525 7.746 3.229 1.11-.096 1.126.245 1.126.245s-1.413.68-3.087 1.594c-.83.46-.156 1.667-.156 1.667 8.568-3.506 19.133-7.886 20.6-8.523a.32.32 0 01.319.041l2.478 1.967c.35.548 17.976-6.225 23.41-8.97.318-.15 3.067-.022 4.403-.035.613 0 .59.268.59.268S23.094 57.44 12.274 57.039h-.02l-2.305.988c1.352.893 1.03 2.435 3.333 1.243.137.32.296.638.465 1.008.447.956.447.975 3.374-.02 8.291-2.798 45.5-13.92 53.835-17.369 4.707-1.94 11.216-4.621 15.272-7.133 4.002-2.461 4.818-3.736 2.644-8.495zm-35.61.172c-.5.357-3.798-.258-3.798-.258s3.648-3.242 7.12-3.656c1.034-.124 3.123.685 3.123.685s-4.66 1.944-6.445 3.23zm11.065-3.226l-4.71 2.416s-1.09-.66.138-1.214c.319-.143 1.036-.555 1.62-.857a.427.427 0 00-.042-.775l-3.492-1.4a2.686 2.686 0 012.382-.487c.507.156 2.628 1.049 4.022 1.632a.367.367 0 01.082.685zm1.174 11.39c-.46.678-1.53 1.94-3.106 1.686-.768-.131-32.045-6.474-32.122-6.48-.22-.061-.191-.53.208-.482l34.813 4.807a.318.318 0 01.207.478v-.01zM88.104 21.34a.561.561 0 00-.096.022.247.247 0 00-.083.054l.32-.083-.141.006zm12.857 23.503c-.262-1.048-2.181-7.997-3.288-10.547l-5.054-9.066a14.386 14.386 0 01-1.595 1.852 1.59 1.59 0 01-.319.214 1.31 1.31 0 01-.475.099l2.723 8.925c.405 1.434 1.352 2.655 2.169 3.895l4.42 6.589a.587.587 0 00.976 0 2.603 2.603 0 00.443-1.96zm-.989 1.24l-.06.096-.067-.096c-.042-.06-4.13-6.075-5.606-8.405-.447-.701.076-1.055.076-1.055l.06-.035.042.054c.207.261 5.029 6.54 5.654 7.695a1.766 1.766 0 01-.099 1.746zM87.548 11.254c-.555-1.878-1.502-3.092-2.324-4.336-.412-.637-3.422-5.1-4.48-6.693a.501.501 0 00-.836 0 2.767 2.767 0 00-.46 2.12c.268 1.042 2.121 7.968 3.23 10.518l4.612 8.119c.115-.135.258-.243.418-.319.109-.047.225-.075.344-.083.61-.041 1.563-.035 2.424-.019l-2.928-9.307zm-1.489-.638l-.06.035-.042-.054c-.204-.268-5.016-6.54-5.654-7.701a1.795 1.795 0 01.109-1.744l.06-.09.067.09c.041.067 4.146 6.088 5.606 8.409.443.714-.08 1.058-.086 1.065v-.01z"/><path d="M93.27 21.338c-1.257-.28-3.636-.296-5.058-.207a1.313 1.313 0 00-.157 0 .844.844 0 00-.102.023.263.263 0 00-.089.06.488.488 0 00-.191.53 55.39 55.39 0 002.174 4.848.508.508 0 00.638.159.691.691 0 00.131-.083 14.169 14.169 0 003.08-4.325c.233-.5.096-.896-.427-1.005zm-4.13 2.442l-.728-1.673a.27.27 0 01.166-.383.317.317 0 01.077-.029s3.01-.108 3.95.077c.502.102.52.28.52.28L89.14 23.78zm-11.197-1.985s-.567 2.35-1.463 5.059l-1.659-2.095-1.342.612 2.442 3.092c-.762 2.085-1.68 4.16-2.66 5.384l2.45-1.112c.558-.517 1.008-1.562 1.358-2.818l1.346 1.702 1.352-.615-2.283-2.869c.497-2.617.628-5.45.46-6.34z"/></g><g filter="url(#filter1_di_13481_463675)" fill="#F3E3C1"><path d="M154.199 23.531l-3.657 14.412a5.485 5.485 0 01-2.062 2.97 5.471 5.471 0 01-3.39 1.228l4.731-18.625h-5.852l-.619 2.825-4.691 18.625h5.691c2.776 0 5.415-1.018 7.917-3.055s4.101-4.43 4.796-7.18l2.115-8.387.715-2.825h-5.694v.012z"/><path d="M164.634 40.05c.013-.072.032-.143.055-.212.022-.055.039-.111.053-.169l4.072-16.135h-9.444l-.718 2.826h3.774l-3.366 13.306c-.058.166-.1.336-.123.51-.244 1.46.131 2.618 1.124 3.476.992.858 2.465 1.286 4.418 1.284h.848l.725-2.825c-1.146-.163-1.616-.854-1.418-2.06zm5.338-25.32a2.36 2.36 0 00-1.901-.845 3.291 3.291 0 00-2.168.845 3.322 3.322 0 00-1.179 2.02 2.404 2.404 0 00.51 2.064 2.344 2.344 0 001.895.845 3.256 3.256 0 002.186-.863 3.403 3.403 0 001.186-2.046 2.399 2.399 0 00-.529-2.02zm15.648 25.836a.769.769 0 01.053-.17.737.737 0 00.047-.165l4.204-16.688h-9.809a10.278 10.278 0 00-5.7 1.71c-1.763 1.129-2.856 2.547-3.279 4.257l-2.372 9.44c-.062.177-.105.36-.13.547a3.962 3.962 0 00.147 2.14 3.994 3.994 0 001.243 1.757c1.191 1.023 2.75 1.535 4.676 1.535h.892a7.301 7.301 0 004.659-1.729c.719 1.153 2.068 1.73 4.047 1.73h2.01l.718-2.826c-1.098-.051-1.567-.564-1.406-1.538zm-5.297-1.6a4.177 4.177 0 01-1.514 2.232 3.95 3.95 0 01-2.477.921c-1.641 0-2.332-.783-2.075-2.361 0-.025.025-.095.056-.209.025-.084.046-.169.062-.255l2.728-10.828c.371-1.403 1.152-2.105 2.343-2.107h4.075l-3.198 12.606zM217.58 25.07c-1.176-1.024-2.724-1.535-4.644-1.535h-.892a10.159 10.159 0 00-5.747 1.728c-1.734 1.153-2.81 2.57-3.229 4.254l-2.415 9.44c-.06.178-.103.36-.13.547-.266 1.6.197 2.907 1.39 3.918 1.193 1.012 2.766 1.517 4.719 1.517h.848a10.148 10.148 0 005.728-1.747c1.753-1.167 2.837-2.579 3.251-4.235l2.394-9.446.09-.544a3.988 3.988 0 00-.139-2.135 4.02 4.02 0 00-1.224-1.762zm-4.335 3.992l-.086.449-2.366 9.44a4.74 4.74 0 01-1.238 2.337 2.572 2.572 0 01-1.79.814 1.431 1.431 0 01-.761-.196 1.408 1.408 0 01-.539-.566 2.812 2.812 0 01-.254-1.935c.014-.078.035-.155.062-.23a2.27 2.27 0 00.055-.23l2.369-9.434a5.013 5.013 0 011.18-2.251 2.471 2.471 0 011.857-.863 1.427 1.427 0 011.285.694c.279.466.36 1.12.226 1.959v.012zm21.848-5.532a9.887 9.887 0 00-5.952 1.812l.428-1.812h-5.666l-5.438 21.405h5.695l2.956-11.71a9.826 9.826 0 012.23-4.023 8.729 8.729 0 013.715-2.592l-.675 2.783h3.097l1.517-5.86h-1.911l.004-.003zm-95.644-8.048c-1.301-1.063-3.055-1.596-5.264-1.6a11.456 11.456 0 00-6.369 1.79 7.77 7.77 0 00-3.499 4.745l-2.366 9.305h-5.285a3.703 3.703 0 00-2.599 1.077A3.636 3.636 0 00113 33.386h8.016l-2.923 11.54h5.645l2.932-11.54h5.143l-1.821 7.18c-.061.177-.103.36-.126.546-.202 1.21.037 2.15.724 2.826.687.675 1.712 1.007 3.096 1.007h2.254l.725-2.825c-.814-.056-1.155-.492-1.016-1.3l5.143-20.403c.018-.114.042-.227.075-.338a3.1 3.1 0 00.074-.344c.299-1.763-.198-3.18-1.492-4.253zm-11.884 14.305v-.065l2.61-10.107a3.866 3.866 0 011.211-2.09 3.05 3.05 0 012.071-.818 1.825 1.825 0 011.586.719 2.354 2.354 0 01.34 1.809l-.065.38-2.61 10.107-.019.064h-5.124zm72.921-6.256l1.303-4.968h-5.706l-1.239 4.968h-2.786l-.725 2.826h2.787l-3.406 13.355c0 .058-.024.16-.071.307a2.702 2.702 0 00-.069.308c-.237 1.433.043 2.559.839 3.378.797.819 2.004 1.228 3.62 1.228h2l.731-2.862c-1.17-.109-1.655-.768-1.455-1.978a1.41 1.41 0 01.055-.212c.025-.086.044-.138.047-.169l3.406-13.355h2.424l.725-2.826h-2.48zm-8.462 28.358h-34.041c-.855 0-1.548.687-1.548 1.535 0 .848.693 1.536 1.548 1.536h34.041c.855 0 1.548-.688 1.548-1.536 0-.848-.693-1.535-1.548-1.535zm-6.193 6.041h-21.656c-.855 0-1.548.687-1.548 1.535 0 .848.693 1.536 1.548 1.536h21.656c.855 0 1.548-.688 1.548-1.536 0-.848-.693-1.535-1.548-1.535z"/></g><defs><filter id="filter0_di_13481_463675" x="0" y="0" width="101" height="65" filterUnits="userSpaceOnUse" color-interpolation-filters="sRGB"><feFlood flood-opacity="0" result="BackgroundImageFix"/><feColorMatrix in="SourceAlpha" values="0 0 0 0 0 0 0 0 0 0 0 0 0 0 0 0 0 0 127 0" result="hardAlpha"/><feOffset dy="4"/><feComposite in2="hardAlpha" operator="out"/><feColorMatrix values="0 0 0 0 0 0 0 0 0 0 0 0 0 0 0 0 0 0 0.5 0"/><feBlend in2="BackgroundImageFix" result="effect1_dropShadow_13481_463675"/><feBlend in="SourceGraphic" in2="effect1_dropShadow_13481_463675" result="shape"/><feColorMatrix in="SourceAlpha" values="0 0 0 0 0 0 0 0 0 0 0 0 0 0 0 0 0 0 127 0" result="hardAlpha"/><feOffset dy="1"/><feComposite in2="hardAlpha" operator="arithmetic" k2="-1" k3="1"/><feColorMatrix values="0 0 0 0 0.290196 0 0 0 0 0.12549 0 0 0 0 0.0431373 0 0 0 0.5 0"/><feBlend in2="shape" result="effect2_innerShadow_13481_463675"/></filter><filter id="filter1_di_13481_463675" x="113" y="13.88" width="124" height="51.121" filterUnits="userSpaceOnUse" color-interpolation-filters="sRGB"><feFlood flood-opacity="0" result="BackgroundImageFix"/><feColorMatrix in="SourceAlpha" values="0 0 0 0 0 0 0 0 0 0 0 0 0 0 0 0 0 0 127 0" result="hardAlpha"/><feOffset dy="4"/><feComposite in2="hardAlpha" operator="out"/><feColorMatrix values="0 0 0 0 0 0 0 0 0 0 0 0 0 0 0 0 0 0 0.5 0"/><feBlend in2="BackgroundImageFix" result="effect1_dropShadow_13481_463675"/><feBlend in="SourceGraphic" in2="effect1_dropShadow_13481_463675" result="shape"/><feColorMatrix in="SourceAlpha" values="0 0 0 0 0 0 0 0 0 0 0 0 0 0 0 0 0 0 127 0" result="hardAlpha"/><feOffset dy="-1"/><feComposite in2="hardAlpha" operator="arithmetic" k2="-1" k3="1"/><feColorMatrix values="0 0 0 0 0.290196 0 0 0 0 0.12549 0 0 0 0 0.0431373 0 0 0 0.5 0"/><feBlend in2="shape" result="effect2_innerShadow_13481_463675"/></filter></defs></svg>