<svg width="24" height="24" viewBox="0 0 24 24" fill="none" xmlns="http://www.w3.org/2000/svg"><path d="M14.288 8.683L8.75 14.239a.724.724 0 00.51 1.232.7.7 0 00.508-.211l5.539-5.556a.724.724 0 00-.313-1.229.719.719 0 00-.705.208zM10.257 9.8a.721.721 0 11-1.443.002.721.721 0 011.443-.002zm5.068 4.343a.721.721 0 11-1.442.002.721.721 0 011.442-.002z" fill="#3EFFA1"/><path fill-rule="evenodd" clip-rule="evenodd" d="M21.813 7.99a2.19 2.19 0 01-.527 2.368 2.18 2.18 0 000 3.245 2.19 2.19 0 01.57 2.399 2.18 2.18 0 01-2.02 1.405h-.24a2.185 2.185 0 00-1.573.687 2.2 2.2 0 00-.596 1.614 2.18 2.18 0 01-.6 1.621c-.414.434-.99.677-1.589.67a2.12 2.12 0 01-1.593-.721 2.176 2.176 0 00-3.235 0A2.12 2.12 0 018.816 22a2.167 2.167 0 01-1.596-.677 2.18 2.18 0 01-.592-1.634 2.2 2.2 0 00-.6-1.608 2.186 2.186 0 00-1.57-.684h-.24a2.18 2.18 0 01-1.926-1.387 2.19 2.19 0 01.477-2.33 2.18 2.18 0 000-3.235 2.19 2.19 0 01-.628-2.438 2.18 2.18 0 012.077-1.414h.24A2.176 2.176 0 006.046 5.9a2.19 2.19 0 00.582-1.636 2.18 2.18 0 01.614-1.596 2.166 2.166 0 011.574-.657 2.09 2.09 0 011.594.732 2.195 2.195 0 003.235 0c.397-.47.98-.741 1.594-.742a2.166 2.166 0 011.592.674 2.18 2.18 0 01.596 1.627 2.19 2.19 0 00.597 1.612c.41.432.978.678 1.573.68h.24a2.18 2.18 0 011.976 1.398zm-1.583 7.375a.396.396 0 00-.115-.481v-.058a3.935 3.935 0 010-5.777.396.396 0 00.115-.482.403.403 0 00-.393-.279h-.24a3.91 3.91 0 01-2.832-1.223 3.984 3.984 0 01-1.075-2.889.396.396 0 00-.096-.317.498.498 0 00-.355-.155.403.403 0 00-.356.155 3.911 3.911 0 01-2.88 1.29 3.92 3.92 0 01-2.88-1.29.403.403 0 00-.307-.155.498.498 0 00-.355.155.396.396 0 00-.096.317 3.936 3.936 0 01-1.059 2.925 3.91 3.91 0 01-2.848 1.235h-.21a.413.413 0 00-.423.28.396.396 0 00.115.48 3.953 3.953 0 011.286 2.89 3.934 3.934 0 01-1.286 2.888.396.396 0 00-.115.482.394.394 0 00.393.289h.24a3.92 3.92 0 012.83 1.224 3.945 3.945 0 011.077 2.897.366.366 0 00.096.308.498.498 0 00.394.144.422.422 0 00.307-.144 3.892 3.892 0 015.808 0 .422.422 0 00.268.154.498.498 0 00.356-.154.366.366 0 00.096-.308 4.022 4.022 0 011.075-2.889 3.949 3.949 0 012.832-1.223h.21a.403.403 0 00.423-.289z" fill="#3EFFA1"/></svg>