<svg width="119" height="60" viewBox="0 0 119 60"><g clip-path="url(#clip0_1877_438634)"><path d="M119 .952c-4.78.546-9.559 1.528-13.687 3.166-7.06 2.783-12.818 7.859-18.303 12.88-12.818 11.407-25.636 22.869-38.726 34.003-2.118 1.801-4.942 5.185-1.846 7.368 2.226 1.528 6.463.764 9.07.928 1.466.055 2.933.164 4.4.218H48.501c-15.154 0-33.24-.054-48.502-.163 1.032-.164 2.064-.492 2.987-.874 2.173-.928 4.182-2.237 6.083-3.547 11.732-8.187 16.023-9.333 28.352-20.795 6.952-6.44 12.709-12.88 18.52-18.284 2.01-1.856 4.074-4.257 3.694-6.877-.435-2.838-3.476-4.64-6.3-5.676C48.719 1.607 43.885.897 38.888.515c23.246 0 56.594.164 80.003.492L119 .952z" style="mix-blend-mode:screen"/></g><defs><clipPath id="clip0_1877_438634"><path d="M0 0h119v60H0z"/></clipPath></defs></svg>